<?xml version="1.0" encoding="UTF-8"?>
<svg id="Layer_2" data-name="Layer 2" xmlns="http://www.w3.org/2000/svg" viewBox="0 0 311.48 311.48">
  <defs>
    <style>
      .cls-1 {
        stroke-width: 0px;
      }
    </style>
  </defs>
  <g id="Layer_2-2" data-name="Layer 2">
    <path class="cls-1" d="M167.72,167.71v4.38c0,15.34,0,30.67,0,46.01,0,8.02-4.77,13.35-11.9,13.38-7.13.03-12.03-5.32-12.04-13.23-.02-15.34,0-30.67,0-46.01v-4.53h-4.21c-15.71,0-31.42.06-47.13-.02-9.23-.05-15.15-8.76-11.46-16.79,2.26-4.91,6.29-7.16,11.69-7.15,15.59.03,31.17,0,46.76,0h4.36v-49.28c0-9.12,4.38-14.46,11.88-14.51,7.51-.04,12.07,5.37,12.07,14.34v49.44h4.19c15.84,0,31.67-.04,47.51.02,5.62.02,10.32,3.63,11.73,8.71,1.37,4.92-.43,10.46-4.95,13.03-2.36,1.34-5.38,2.06-8.11,2.09-16.58.19-33.16.09-50.37.09l-.02.03Z"/>
    <path class="cls-1" d="M.05,51.13c0-7.73-.08-15.46.02-23.19C.27,12.35,12.32.21,27.89.08,43.72-.05,59.56,0,75.4.06c7.26.03,12.46,5.23,12.38,12.13-.08,6.72-5.25,11.75-12.36,11.78-15.09.07-30.17.02-45.26.03-5.08,0-6.15,1.06-6.15,6.1,0,15.21.04,30.42-.03,45.64-.02,5.49-3.45,10.04-8.4,11.59-4.86,1.52-10.41-.13-13.16-4.58-1.36-2.2-2.17-5.07-2.26-7.67-.29-7.97-.1-15.96-.1-23.94h0Z"/>
    <path class="cls-1" d="M260.22.04c7.73,0,15.46-.07,23.19.02,15.79.18,27.89,12.24,28,28.07.12,15.71.07,31.42.01,47.13-.03,7.32-5.12,12.53-12.01,12.51-6.85-.02-11.89-5.28-11.91-12.61-.05-15.09,0-30.17-.02-45.26,0-4.78-1.13-5.89-5.98-5.9-14.84,0-29.68,0-44.51,0-7.95,0-13.29-4.87-13.28-12,.01-7.17,5.29-11.92,13.32-11.94,7.73-.02,15.46,0,23.19,0h0Z"/>
    <path class="cls-1" d="M51.35,311.43c-7.73,0-15.46.07-23.19-.02-15.83-.18-27.96-12.22-28.08-28-.12-15.71-.06-31.42,0-47.13.02-7.38,5.02-12.57,11.92-12.58,6.9-.02,11.97,5.18,12,12.52.06,15.09,0,30.17.02,45.26,0,4.85,1.11,5.99,5.89,5.99,14.84.02,29.68,0,44.51.01,8.01,0,13.34,4.78,13.37,11.9.03,7.13-5.31,12.01-13.24,12.04-7.73.02-15.46,0-23.19,0h0Z"/>
    <path class="cls-1" d="M311.44,260.46c0,7.61.07,15.21-.02,22.82-.18,15.85-12.18,27.99-27.97,28.12-15.71.13-31.42.07-47.13.02-7.38-.02-12.59-5.02-12.62-11.91-.03-6.93,5.13-11.98,12.49-12.01,14.84-.06,29.68-.02,44.52-.02,5.89,0,6.78-.86,6.78-6.61,0-14.59-.01-29.18,0-43.77,0-8.06,4.72-13.35,11.86-13.4,7.27-.05,12.07,5.33,12.08,13.57.01,7.73,0,15.46,0,23.19h.01Z"/>
    <path class="cls-1" d="M156.12.04c7.61,0,15.22-.04,22.82,0,7.32.05,12.67,5.09,12.72,11.88.05,6.81-5.28,12.02-12.54,12.05-15.59.06-31.18.06-46.77,0-7.24-.03-12.58-5.27-12.52-12.07.06-6.82,5.37-11.81,12.72-11.85,7.86-.05,15.71,0,23.57,0h0Z"/>
    <path class="cls-1" d="M.05,155.53c0-7.61-.03-15.22,0-22.82.04-7.58,5.1-12.95,12.06-12.89,6.79.05,11.84,5.39,11.87,12.73.05,15.46.05,30.93,0,46.39-.02,7.33-5.09,12.67-11.88,12.72-6.93.05-12.01-5.36-12.05-12.92-.04-7.73,0-15.46,0-23.2H.05Z"/>
    <path class="cls-1" d="M287.49,155.53c0-7.61-.03-15.22,0-22.82.04-7.58,5.09-12.95,12.06-12.9,6.79.05,11.85,5.39,11.87,12.73.05,15.46.05,30.93,0,46.39-.02,7.33-5.08,12.67-11.88,12.72-6.93.05-12.01-5.36-12.05-12.92-.04-7.73,0-15.46,0-23.2h0Z"/>
    <path class="cls-1" d="M155.75,311.43c-7.61,0-15.22.03-22.82,0-7.64-.03-13.05-4.97-13.1-11.88-.05-6.97,5.31-12.04,12.9-12.05,15.34-.04,30.68-.04,46.02,0,7.56.02,12.97,5.11,12.92,12.05-.05,6.92-5.45,11.85-13.09,11.88-7.61.03-15.22,0-22.82,0h0Z"/>
  </g>
</svg>