<?xml version="1.0" encoding="UTF-8"?>
<svg id="Layer_2" data-name="Layer 2" xmlns="http://www.w3.org/2000/svg" viewBox="0 0 383.86 383.03">
  <defs>
    <style>
      .cls-1 {
        fill: #fefdfd;
      }

      .cls-1, .cls-2, .cls-3 {
        stroke-width: 0px;
      }

      .cls-2 {
        fill: #fe3f5b;
      }

      .cls-3 {
        fill: #fefcfc;
      }
    </style>
  </defs>
  <g id="Layer_2-2" data-name="Layer 2">
    <path class="cls-2" d="M0,207.21v-30.68c.87-.41.68-1.23.74-1.94,1.33-14.57,4.18-28.82,8.77-42.72C40.38,38.47,136.09-16.29,232.4,4.33c80.41,17.22,141.13,84.19,150.13,165.45.3,2.74-.18,5.68,1.33,8.24v27.68c-1.07.48-.7,1.48-.78,2.28-.9,9.81-2.46,19.52-4.79,29.09-18.4,75.56-81.43,132.67-158.67,143.91-4.48.65-9.1.5-13.44,2.05h-29.24c-.48-1.07-1.48-.7-2.29-.78-38.39-3.78-72.94-17.21-102.92-41.54-37.42-30.36-60.47-69.31-68.96-116.8-1-5.56-.78-11.32-2.77-16.72v.02ZM121.59,210.03c0,17.71-.09,35.42.02,53.12.11,16.99,12.43,29.3,29.35,29.34,27.36.07,54.73.01,82.09.03,2.9,0,5.73-.37,8.5-1.17,12.63-3.63,20.68-14.7,20.7-28.74.05-35.54.04-71.08-.03-106.62,0-2.53.35-3.69,3.34-3.81,4.85-.2,7.25-3.18,7.33-8.17.06-3.86.05-7.73,0-11.6-.15-11.66-8.76-20.17-20.51-20.25-7.75-.05-15.49-.09-23.24.04-2.32.04-3.05-.7-2.95-2.97.15-3.61.16-7.24,0-10.85-.23-5.01-3.13-7.86-8.12-7.88-17.37-.06-34.73-.06-52.1,0-5.21.02-8.12,2.87-8.32,8.06-.13,3.49-.17,6.99,0,10.47.12,2.43-.64,3.22-3.13,3.17-7.99-.14-15.99-.15-23.99-.02-10.62.17-19.25,8.71-19.56,19.28-.12,4.24-.08,8.48-.01,12.72.08,4.9,2.55,7.78,7.49,8.02,2.76.14,3.19,1.15,3.17,3.58-.09,18.08-.05,36.16-.05,54.24h.03Z"/>
    <path class="cls-3" d="M121.59,210.03c0-18.08-.04-36.16.05-54.24.01-2.43-.41-3.44-3.17-3.58-4.94-.25-7.41-3.12-7.49-8.02-.07-4.24-.11-8.48.01-12.72.31-10.57,8.94-19.11,19.56-19.28,7.99-.13,15.99-.13,23.99.02,2.49.04,3.26-.75,3.13-3.17-.18-3.48-.14-6.98,0-10.47.2-5.19,3.11-8.05,8.32-8.06,17.37-.05,34.73-.06,52.1,0,4.98.02,7.89,2.87,8.12,7.88.17,3.61.16,7.24,0,10.85-.1,2.27.63,3.01,2.95,2.97,7.74-.13,15.49-.09,23.24-.04,11.75.08,20.35,8.6,20.51,20.25.05,3.87.06,7.73,0,11.6-.08,4.98-2.48,7.96-7.33,8.17-2.99.13-3.34,1.28-3.34,3.81.07,35.54.08,71.08.03,106.62-.02,14.04-8.06,25.11-20.7,28.74-2.77.8-5.6,1.17-8.5,1.17-27.36-.02-54.73.04-82.09-.03-16.93-.04-29.25-12.35-29.35-29.34-.11-17.71-.02-35.41-.03-53.12h-.02ZM136.59,209.62c0,17.46,0,34.91,0,52.37,0,10.16,5.35,15.55,15.41,15.56,26.61.01,53.22.01,79.83,0,9.91,0,15.42-5.38,15.43-15.17.03-35.41-.02-70.82.07-106.23,0-2.81-.57-3.88-3.67-3.87-34.48.11-68.96.11-103.44,0-3.07,0-3.71,1.02-3.69,3.85.11,17.83.06,35.66.06,53.49h0ZM191.74,137.37c20.48,0,40.97.02,61.45-.03,1.52,0,3.81.88,4.41-.78.77-2.13.8-4.68-.47-6.88-1.39-2.41-3.71-2.57-6.18-2.57-39.34.03-78.69.02-118.03.02-.75,0-1.51-.05-2.25.04-3.54.45-5.02,3.11-4.75,7.95.21,3.89,3.11,2.15,4.74,2.16,20.36.12,40.72.08,61.08.08h0ZM191.93,112.15c5.49,0,10.98-.16,16.46.06,2.87.12,2.87-1.37,2.88-3.43,0-2.08-.06-3.44-2.89-3.4-10.97.16-21.95.16-32.92,0-2.85-.04-2.88,1.34-2.88,3.41s.04,3.53,2.89,3.42c5.48-.22,10.97-.06,16.46-.06Z"/>
    <path class="cls-2" d="M136.59,209.62c0-17.83.06-35.66-.06-53.49-.02-2.83.62-3.86,3.69-3.85,34.48.11,68.96.11,103.44,0,3.1,0,3.68,1.06,3.67,3.87-.08,35.41-.04,70.82-.07,106.23,0,9.78-5.52,15.16-15.43,15.17-26.61.01-53.22.01-79.83,0-10.06,0-15.4-5.39-15.41-15.56-.02-17.46,0-34.91,0-52.37h0ZM168,215.11c0-13.58-.02-27.15.02-40.73,0-2.77-.61-5.19-2.89-6.94-2.4-1.84-5.07-2.08-7.75-.84-3.36,1.55-4.39,4.47-4.38,7.99.02,26.9,0,53.81.03,80.71,0,5.31,3.14,8.81,7.62,8.74,4.52-.07,7.35-3.45,7.36-8.94.02-13.33,0-26.65,0-39.98h0ZM215.86,214.81c0,13.58.04,27.15-.03,40.73,0,3.27.99,5.9,3.88,7.54,5.38,3.03,11.11-.98,11.12-7.86.04-26.78.03-53.56,0-80.34,0-5.76-2.88-9.05-7.69-8.97-4.64.08-7.28,3.26-7.29,8.92-.02,13.33,0,26.65,0,39.98h0ZM184.44,214.97c0,13.7-.05,27.4.02,41.1.02,4.71,3.35,8.04,7.61,7.96,4.15-.08,7.32-3.29,7.33-7.86.06-27.53.04-55.05.02-82.58,0-3.29-1.48-5.78-4.53-7.12-5.13-2.26-10.39,1.39-10.42,7.39-.09,13.7-.03,27.4-.03,41.1h0Z"/>
    <path class="cls-2" d="M191.74,137.37c-20.36,0-40.72.04-61.08-.08-1.63,0-4.53,1.73-4.74-2.16-.27-4.84,1.21-7.5,4.75-7.95.74-.09,1.5-.04,2.25-.04,39.34,0,78.69,0,118.03-.02,2.48,0,4.8.15,6.18,2.57,1.26,2.2,1.23,4.75.47,6.88-.6,1.66-2.89.78-4.41.78-20.48.05-40.97.03-61.45.03h0Z"/>
    <path class="cls-2" d="M191.93,112.15c-5.49,0-10.98-.16-16.46.06-2.85.12-2.89-1.35-2.89-3.42s.04-3.45,2.88-3.41c10.97.17,21.95.16,32.92,0,2.83-.04,2.9,1.32,2.89,3.4,0,2.06-.02,3.54-2.88,3.43-5.48-.22-10.97-.06-16.46-.06Z"/>
    <path class="cls-3" d="M168,215.11c0,13.33.02,26.65,0,39.98,0,5.49-2.84,8.88-7.36,8.94-4.48.07-7.62-3.43-7.62-8.74-.03-26.9,0-53.81-.03-80.71,0-3.51,1.02-6.43,4.38-7.99,2.68-1.24,5.36-.99,7.75.84,2.28,1.75,2.9,4.17,2.89,6.94-.05,13.58-.02,27.15-.02,40.73h0Z"/>
    <path class="cls-3" d="M215.86,214.81c0-13.33-.02-26.65,0-39.98,0-5.66,2.65-8.84,7.29-8.92,4.81-.08,7.69,3.21,7.69,8.97.02,26.78.03,53.56,0,80.34,0,6.88-5.75,10.89-11.12,7.86-2.9-1.64-3.9-4.27-3.88-7.54.06-13.58.03-27.15.03-40.73h0Z"/>
    <path class="cls-1" d="M184.44,214.97c0-13.7-.06-27.4.03-41.1.04-6,5.29-9.65,10.42-7.39,3.05,1.34,4.52,3.83,4.53,7.12.02,27.53.04,55.05-.02,82.58,0,4.57-3.18,7.78-7.33,7.86-4.26.08-7.58-3.25-7.61-7.96-.07-13.7-.02-27.4-.03-41.1h.01Z"/>
  </g>
</svg>