<?xml version="1.0" encoding="UTF-8"?>
<svg id="Layer_2" data-name="Layer 2" xmlns="http://www.w3.org/2000/svg" viewBox="0 0 384 384">
  <defs>
    <style>
      .cls-1, .cls-2 {
        stroke-width: 0px;
      }

      .cls-2 {
        fill: #fff;
      }
    </style>
  </defs>
  <g id="Layer_1-2" data-name="Layer 1">
    <g>
      <path class="cls-1" d="M195.75,0c8.09,2.47,14.42,6.93,16.65,15.55.74,2.85.87,5.92.87,8.9.05,65.23.04,130.46.04,195.68v5.56c1.74-1.66,2.74-2.57,3.69-3.52,15.03-15.02,30.02-30.06,45.08-45.05,5.9-5.87,13.05-7.76,21.02-5.56,8.02,2.21,13.1,7.64,14.95,15.72,1.86,8.1-.72,14.96-6.56,20.78-15.85,15.79-31.64,31.62-47.46,47.44-11.75,11.75-23.48,23.52-35.26,35.25-10.72,10.68-22.85,10.67-33.52,0-27.49-27.47-54.98-54.94-82.43-82.44-9.08-9.1-9.94-21.47-2.23-30.26,8.35-9.52,22.27-9.91,31.58-.68,15,14.86,29.88,29.85,44.82,44.77.96.95,1.95,1.87,3.7,3.53,0-2.44,0-3.99,0-5.54,0-65.48,0-130.96,0-196.43,0-12.67,4.94-19.4,16.94-23.27.23-.07.41-.28.61-.42,2.5,0,5,0,7.5,0Z"/>
      <path class="cls-1" d="M0,273c.4-.88.85-1.73,1.18-2.63,3.64-9.91,13.14-15.64,23.33-14.06,10.4,1.62,17.89,10.05,18.15,20.69.17,6.87.02,13.75.05,20.62.13,25.13,18.36,43.61,43.51,43.64,70.48.1,140.96.09,211.44,0,25.35-.03,43.53-18.49,43.64-43.9.03-6.37-.03-12.75.01-19.12.08-11.65,7.37-20.33,18.43-21.99,10.68-1.6,20.04,4.67,23.57,15.78.18.58.46,1.14.7,1.7v33c-.23.82-.59,1.63-.69,2.46-3.95,33.87-28.95,62.85-62.02,71.71-4.78,1.28-9.69,2.06-14.54,3.07H77.25c-.82-.23-1.63-.59-2.46-.68-33.83-3.94-62.85-28.96-71.72-62.01-1.28-4.78-2.06-9.7-3.07-14.56,0-11.25,0-22.5,0-33.75Z"/>
      <path class="cls-2" d="M0,306.75c1.01,4.86,1.79,9.78,3.07,14.56,8.86,33.04,37.88,58.07,71.72,62.01.84.1,1.64.45,2.46.68H0C0,358.25,0,332.5,0,306.75Z"/>
      <path class="cls-2" d="M306.75,384c4.85-1.01,9.76-1.79,14.54-3.07,33.08-8.86,58.08-37.84,62.02-71.71.1-.84.45-1.64.69-2.46v77.25h-77.25Z"/>
    </g>
  </g>
</svg>