<?xml version="1.0" encoding="UTF-8"?>
<svg id="Layer_2" data-name="Layer 2" xmlns="http://www.w3.org/2000/svg" viewBox="0 0 24 24">
  <defs>
    <style>
      .cls-1, .cls-2 {
        stroke-width: 0px;
      }

      .cls-2 {
        fill: #fff;
      }
    </style>
  </defs>
  <g id="Layer_1-2" data-name="Layer 1">
    <g>
      <path class="cls-2" d="M0,24V0h24v24H0ZM11.99,6.75c2.56,0,5.13,0,7.69,0,.2,0,.41,0,.61,0,.38-.02.68-.32.71-.68.03-.37-.22-.71-.59-.79-.11-.02-.22-.02-.33-.02-5.39,0-10.78,0-16.18,0-.06,0-.13,0-.19,0-.38.02-.69.3-.72.67-.04.37.21.72.58.8.1.02.22.02.33.02,2.7,0,5.39,0,8.09,0ZM12.01,11.25c-2.7,0-5.39,0-8.09,0-.08,0-.16,0-.23,0-.52.04-.84.58-.63,1.05.16.34.44.45.8.45,5.42,0,10.85,0,16.27,0,.05,0,.11,0,.16,0,.38-.03.68-.33.7-.7.03-.37-.23-.71-.6-.79-.1-.02-.2-.02-.3-.02-2.7,0-5.39,0-8.09,0ZM12,17.25c-2.69,0-5.38,0-8.06,0-.08,0-.16,0-.23,0-.36.02-.65.3-.7.65-.05.35.16.7.51.8.13.04.28.05.42.05,5.38,0,10.77,0,16.15,0,.08,0,.16,0,.23,0,.32-.04.54-.2.65-.5.18-.51-.19-.99-.78-1-2.73,0-5.45,0-8.18,0Z"/>
      <path class="cls-1" d="M11.99,6.75c-2.7,0-5.39,0-8.09,0-.11,0-.22,0-.33-.02-.37-.09-.61-.43-.58-.8.04-.37.34-.65.72-.67.06,0,.13,0,.19,0,5.39,0,10.78,0,16.18,0,.11,0,.22,0,.33.02.37.08.62.42.59.79-.03.37-.33.67-.71.68-.2,0-.41,0-.61,0-2.56,0-5.13,0-7.69,0Z"/>
      <path class="cls-1" d="M12.01,11.25c2.7,0,5.39,0,8.09,0,.1,0,.21,0,.3.02.37.07.62.42.6.79-.03.37-.33.67-.7.7-.05,0-.11,0-.16,0-5.42,0-10.85,0-16.27,0-.36,0-.65-.12-.8-.45-.22-.47.11-1,.63-1.05.08,0,.16,0,.23,0,2.7,0,5.39,0,8.09,0Z"/>
      <path class="cls-1" d="M12,17.25c2.73,0,5.45,0,8.18,0,.58,0,.96.48.78,1-.11.3-.33.46-.65.5-.08,0-.16,0-.23,0-5.38,0-10.77,0-16.15,0-.14,0-.28,0-.42-.05-.35-.11-.55-.45-.51-.8.05-.35.34-.62.7-.65.08,0,.16,0,.23,0,2.69,0,5.38,0,8.06,0Z"/>
    </g>
  </g>
</svg>