<?xml version="1.0" encoding="UTF-8"?>
<svg id="Layer_2" data-name="Layer 2" xmlns="http://www.w3.org/2000/svg" viewBox="0 0 24 24">
  <defs>
    <style>
      .cls-1, .cls-2 {
        stroke-width: 0px;
      }

      .cls-2 {
        fill: #fff;
      }
    </style>
  </defs>
  <g id="Layer_1-2" data-name="Layer 1">
    <g>
      <path class="cls-2" d="M24,24H0V0h24v24ZM2.25,18.74h4.47v-4.47h-1.49v2.44c-1.87-2.59-2.13-6.55.14-9.6,1.13-1.51,2.61-2.54,4.43-3.03,2.23-.61,4.35-.3,6.37.83.25-.43.5-.85.75-1.27-2.94-1.82-7.34-2-10.79.6-1.7,1.28-2.87,2.95-3.47,5-.82,2.82-.41,5.48,1.11,8.02h-1.52v1.47ZM7.04,20.39c3.15,1.91,7.58,1.91,10.93-.71,1.65-1.29,2.79-2.96,3.35-4.98.78-2.79.38-5.43-1.13-7.93h1.51v-1.48h-4.46v4.47h1.49v-2.44c1.83,2.53,2.14,6.41-.04,9.46-1.09,1.53-2.54,2.58-4.35,3.11-2.28.67-4.47.38-6.55-.78-.25.43-.5.84-.75,1.27Z"/>
      <path class="cls-1" d="M2.25,18.74v-1.47h1.52c-1.52-2.54-1.93-5.2-1.11-8.02.6-2.05,1.77-3.72,3.47-5,3.45-2.6,7.85-2.42,10.79-.6-.25.42-.5.84-.75,1.27-2.02-1.13-4.15-1.44-6.37-.83-1.82.5-3.3,1.52-4.43,3.03-2.27,3.05-2.01,7.01-.14,9.6v-2.44h1.49v4.47H2.25Z"/>
      <path class="cls-1" d="M7.04,20.39c.25-.43.5-.84.75-1.27,2.08,1.16,4.27,1.45,6.55.78,1.8-.53,3.26-1.58,4.35-3.11,2.18-3.06,1.87-6.93.04-9.46v2.44h-1.49v-4.47h4.46v1.48h-1.51c1.51,2.51,1.92,5.14,1.13,7.93-.57,2.02-1.7,3.68-3.35,4.98-3.35,2.62-7.78,2.63-10.93.71Z"/>
    </g>
  </g>
</svg>