<?xml version="1.0" encoding="UTF-8"?>
<svg id="Layer_2" data-name="Layer 2" xmlns="http://www.w3.org/2000/svg" viewBox="0 0 16.5 16.5">
  <defs>
    <style>
      .cls-1, .cls-2 {
        stroke-width: 0px;
      }

      .cls-2 {
        fill: #fff;
      }
    </style>
  </defs>
  <g id="Layer_1-2" data-name="Layer 1">
    <g>
      <path class="cls-2" d="M16.5,16.5H0V0h16.5v16.5ZM12.84,10.81c-.04.07-.06.11-.08.15-1.33,2.22-4.11,3.14-6.5,2.14-1.34-.56-2.28-1.52-2.85-2.86-.18-.41-.6-.59-.99-.43-.38.16-.56.59-.39.99,1.17,2.87,4.15,4.63,7.36,4.09,1.88-.31,3.37-1.29,4.46-2.86.02-.03.05-.06.08-.1.02.06.03.11.04.16.1.51.2,1.03.31,1.54.09.42.47.67.88.59.4-.08.67-.46.58-.88-.24-1.26-.49-2.51-.75-3.76-.08-.41-.46-.65-.87-.57-1.24.24-2.48.49-3.72.74-.43.09-.7.47-.61.89.09.41.48.66.92.57.7-.14,1.41-.28,2.14-.42ZM2.6,4.53s-.02-.06-.02-.1c-.1-.51-.2-1.02-.31-1.53-.09-.43-.47-.7-.87-.61-.42.09-.68.46-.59.9.24,1.25.49,2.49.74,3.73.08.4.46.65.86.57.64-.12,1.28-.25,1.92-.38.61-.12,1.23-.24,1.84-.37.42-.09.66-.48.58-.88-.09-.41-.48-.66-.9-.58-.27.05-.55.11-.82.16-.44.09-.88.17-1.34.27.03-.06.05-.11.08-.15,1.29-2.18,4.05-3.13,6.41-2.19,1.38.55,2.36,1.52,2.95,2.89.18.42.61.6,1,.43.39-.17.55-.6.38-1.01C12.72,1.36,7.09.13,3.68,3.34c-.39.37-.72.8-1.08,1.2Z"/>
      <path class="cls-1" d="M12.84,10.81c-.74.15-1.44.29-2.14.42-.44.09-.83-.16-.92-.57-.09-.41.18-.8.61-.89,1.24-.25,2.48-.5,3.72-.74.41-.08.79.16.87.57.26,1.25.51,2.51.75,3.76.08.42-.18.8-.58.88-.4.08-.78-.17-.88-.59-.11-.51-.21-1.03-.31-1.54,0-.05-.02-.09-.04-.16-.04.04-.06.07-.08.1-1.09,1.57-2.58,2.54-4.46,2.86-3.2.53-6.18-1.23-7.36-4.09-.16-.4,0-.83.39-.99.39-.17.82.01.99.43.57,1.33,1.51,2.3,2.85,2.86,2.39,1,5.17.08,6.5-2.14.02-.04.05-.08.08-.15Z"/>
      <path class="cls-1" d="M2.6,4.53c.36-.4.69-.83,1.08-1.2C7.09.13,12.72,1.36,14.5,5.69c.17.42.01.84-.38,1.01-.39.17-.82,0-1-.43-.59-1.37-1.57-2.34-2.95-2.89-2.36-.94-5.11,0-6.41,2.19-.02.04-.04.08-.08.15.46-.09.9-.18,1.34-.27.27-.05.55-.11.82-.16.42-.08.81.17.9.58.08.4-.17.79-.58.88-.61.13-1.23.25-1.84.37-.64.13-1.28.26-1.92.38-.4.07-.77-.18-.86-.57-.25-1.24-.5-2.49-.74-3.73-.09-.44.17-.81.59-.9.4-.08.78.18.87.61.11.51.2,1.02.31,1.53,0,.04.02.08.02.1Z"/>
    </g>
  </g>
</svg>